<svg height="512" viewBox="0 0 512 512" width="512" xmlns="http://www.w3.org/2000/svg"><g id="Flat"><path d="m488 120-15.01 12a66.634 66.634 0 0 0 -24.99 52.01v15.99l-7.67 4.6a66.6 66.6 0 0 0 -32.33 57.11v10.29l-2.46.82a66.593 66.593 0 0 0 -45.54 63.18 120.019 120.019 0 0 0 -72 24h-64a120.019 120.019 0 0 0 -72-24c0-.55-.01-1.09-.02-1.63s-.03-1.07-.06-1.6v-.09c-.03-.52-.06-1.03-.1-1.55-.07-.97-.16-1.94-.28-2.9-.03-.27-.06-.54-.1-.81-.04-.36-.09-.72-.15-1.09-.07-.53-.15-1.05-.25-1.58-.08-.53-.18-1.05-.29-1.57a66.576 66.576 0 0 0 -44.29-50.36l-2.46-.82v-10.29a66.6 66.6 0 0 0 -32.33-57.11l-7.67-4.6v-15.99a66.634 66.634 0 0 0 -24.99-52.01l-15.01-12h96l72 72v64a16 16 0 0 0 16 16h96a16 16 0 0 0 16-16v-64l72-72z" fill="#404f66"/><path d="m488 120-15.01 12a66.634 66.634 0 0 0 -24.99 52.01v15.99l-7.67 4.6a66.6 66.6 0 0 0 -32.33 57.11v10.29l-2.46.82a66.593 66.593 0 0 0 -45.54 63.18 120.019 120.019 0 0 0 -72 24h-64a120.019 120.019 0 0 0 -72-24c0-.54-.01-1.09-.02-1.63s-.03-1.07-.06-1.6v-.09c-.03-.52-.06-1.04-.1-1.55-.07-.97-.16-1.94-.28-2.9-.03-.27-.06-.54-.1-.81-.05-.37-.1-.73-.15-1.09-.08-.53-.16-1.06-.25-1.58s-.19-1.05-.29-1.57c31.72 1.28 83.96-1.99 137.25-28.44q7.98-3.96 16-8.65c49.36-28.95 97.97-79.38 130.34-166.09z" fill="#3b495e"/><path d="m288 272h16v40h-16z" fill="#3b495e"/><path d="m256 392-32-32v-136l24 24h16l24-24v136z" fill="#4d5e78"/><g fill="#313b4c"><path d="m248 280h16v16h-16z"/><rect height="16" rx="8" width="96" x="64" y="192"/><rect height="16" rx="8" transform="matrix(.919 -.394 .394 .919 -91.748 73.021)" width="60.926" x="101.537" y="252"/><rect height="16" rx="8" transform="matrix(.515 -.857 .857 .515 -191.344 294.037)" width="46.648" x="140.676" y="308"/><rect height="16" rx="8" width="96" x="352" y="192"/><rect height="60.926" rx="8" transform="matrix(.394 -.919 .919 .394 -8.667 506.856)" width="16" x="372" y="229.537"/><rect height="46.648" rx="8" transform="matrix(.857 -.514 .514 .857 -112.988 224.077)" width="16" x="340" y="292.676"/></g></g></svg>