<svg viewBox="0 0 464 464" xmlns="http://www.w3.org/2000/svg"><path d="m432 160c-.105469 92.738281-75.261719 167.894531-168 168h-16v-24c76.234375-4.585938 135.773438-67.628906 136-144h-16c-.011719 67.578125-52.554688 123.503906-120 127.726562v-33.253906c41.679688-7.746094 71.933594-44.078125 72-86.472656v-8h-16v8c-.050781 36.644531-27.585938 67.421875-64 71.527344v-79.527344h-16v79.527344c-36.414062-4.105469-63.949219-34.882813-64-71.527344v-8h-16v8c.066406 42.394531 30.320312 78.726562 72 86.472656v33.253906c-67.445312-4.222656-119.988281-60.148437-120-127.726562h-16c.226562 76.371094 59.765625 139.414062 136 144v24h-16c-92.738281-.105469-167.894531-75.261719-168-168h-16c.113281 101.574219 82.425781 183.886719 184 184h16v56h32v-56h16c101.574219-.113281 183.886719-82.425781 184-184zm0 0" fill="#dbdbdb"/><path d="m144 400c-17.671875 0-32 14.328125-32 32h240c0-17.671875-14.328125-32-32-32zm0 0" fill="#dbdbdb"/><path d="m67.199219 438.398438-19.199219 25.601562h368l-19.199219-25.601562c-3.023437-4.027344-7.765625-6.398438-12.800781-6.398438h-304c-5.035156 0-9.777344 2.371094-12.800781 6.398438zm0 0" fill="#dbdbdb"/><path d="m136 128h32c4.417969 0 8 3.582031 8 8v16c0 4.417969-3.582031 8-8 8h-32c-4.417969 0-8-3.582031-8-8v-16c0-4.417969 3.582031-8 8-8zm0 0" fill="#858585"/><path d="m8 128h32v-64c0-4.417969-3.582031-8-8-8h-16c-4.417969 0-8 3.582031-8 8zm0 0" fill="#e8bb48"/><path d="m27.632812 4.847656-3.632812-4.847656-3.632812 4.847656c-8.988282 11.976563-10.355469 28.03125-3.519532 41.351563 1.402344 2.652343 4.152344 4.3125 7.152344 4.3125s5.75-1.660157 7.152344-4.3125c6.835937-13.320313 5.46875-29.375-3.519532-41.351563zm0 0" fill="#d1a32f"/><path d="m72 128h32v-64c0-4.417969-3.582031-8-8-8h-16c-4.417969 0-8 3.582031-8 8zm0 0" fill="#e8bb48"/><path d="m91.632812 4.847656-3.632812-4.847656-3.632812 4.847656c-8.988282 11.976563-10.355469 28.03125-3.519532 41.351563 1.402344 2.652343 4.152344 4.3125 7.152344 4.3125s5.75-1.660157 7.152344-4.3125c6.835937-13.320313 5.46875-29.375-3.519532-41.351563zm0 0" fill="#d1a32f"/><path d="m168 64c0-4.417969-3.582031-8-8-8h-16c-4.417969 0-8 3.582031-8 8v64h32zm0 0" fill="#e8bb48"/><path d="m155.632812 4.847656-3.632812-4.847656-3.632812 4.847656c-8.988282 11.976563-10.355469 28.03125-3.519532 41.351563 1.402344 2.652343 4.152344 4.3125 7.152344 4.3125s5.75-1.660157 7.152344-4.3125c6.835937-13.320313 5.46875-29.375-3.519532-41.351563zm0 0" fill="#d1a32f"/><path d="m248 64c0-4.417969-3.582031-8-8-8h-16c-4.417969 0-8 3.582031-8 8v64h32zm0 0" fill="#e8bb48"/><path d="m235.632812 4.847656-3.632812-4.847656-3.632812 4.847656c-8.988282 11.976563-10.355469 28.03125-3.519532 41.351563 1.402344 2.652343 4.152344 4.3125 7.152344 4.3125s5.75-1.660157 7.152344-4.3125c6.835937-13.320313 5.46875-29.375-3.519532-41.351563zm0 0" fill="#d1a32f"/><path d="m328 64c0-4.417969-3.582031-8-8-8h-16c-4.417969 0-8 3.582031-8 8v64h32zm0 0" fill="#e8bb48"/><path d="m315.632812 4.847656-3.632812-4.847656-3.632812 4.847656c-8.988282 11.976563-10.355469 28.03125-3.519532 41.351563 1.402344 2.652343 4.152344 4.3125 7.152344 4.3125s5.75-1.660157 7.152344-4.3125c6.835937-13.320313 5.46875-29.375-3.519532-41.351563zm0 0" fill="#d1a32f"/><path d="m392 64c0-4.417969-3.582031-8-8-8h-16c-4.417969 0-8 3.582031-8 8v64h32zm0 0" fill="#e8bb48"/><path d="m379.632812 4.847656-3.632812-4.847656-3.632812 4.847656c-8.988282 11.976563-10.355469 28.03125-3.519532 41.351563 1.402344 2.652343 4.152344 4.3125 7.152344 4.3125s5.75-1.660157 7.152344-4.3125c6.835937-13.320313 5.46875-29.375-3.519532-41.351563zm0 0" fill="#d1a32f"/><path d="m456 64c0-4.417969-3.582031-8-8-8h-16c-4.417969 0-8 3.582031-8 8v64h32zm0 0" fill="#e8bb48"/><path d="m443.632812 4.847656-3.632812-4.847656-3.632812 4.847656c-8.988282 11.976563-10.355469 28.03125-3.519532 41.351563 1.402344 2.652343 4.152344 4.3125 7.152344 4.3125s5.75-1.660157 7.152344-4.3125c6.835937-13.320313 5.46875-29.375-3.519532-41.351563zm0 0" fill="#d1a32f"/><path d="m112 432h240c-.035156-2.703125-.414062-5.390625-1.128906-8h-237.742188c-.714844 2.609375-1.09375 5.296875-1.128906 8zm0 0" fill="#ccc"/><path d="m72 128h32c4.417969 0 8 3.582031 8 8v16c0 4.417969-3.582031 8-8 8h-32c-4.417969 0-8-3.582031-8-8v-16c0-4.417969 3.582031-8 8-8zm0 0" fill="#858585"/><path d="m360 128h32c4.417969 0 8 3.582031 8 8v16c0 4.417969-3.582031 8-8 8h-32c-4.417969 0-8-3.582031-8-8v-16c0-4.417969 3.582031-8 8-8zm0 0" fill="#858585"/><path d="m424 128h32c4.417969 0 8 3.582031 8 8v16c0 4.417969-3.582031 8-8 8h-32c-4.417969 0-8-3.582031-8-8v-16c0-4.417969 3.582031-8 8-8zm0 0" fill="#858585"/><path d="m296 128h32c4.417969 0 8 3.582031 8 8v16c0 4.417969-3.582031 8-8 8h-32c-4.417969 0-8-3.582031-8-8v-16c0-4.417969 3.582031-8 8-8zm0 0" fill="#858585"/><path d="m216 128h32c4.417969 0 8 3.582031 8 8v16c0 4.417969-3.582031 8-8 8h-32c-4.417969 0-8-3.582031-8-8v-16c0-4.417969 3.582031-8 8-8zm0 0" fill="#858585"/><path d="m8 128h32c4.417969 0 8 3.582031 8 8v16c0 4.417969-3.582031 8-8 8h-32c-4.417969 0-8-3.582031-8-8v-16c0-4.417969 3.582031-8 8-8zm0 0" fill="#858585"/><path d="m40 128h-32v-16l32-32zm0 0" fill="#d6ad42"/><path d="m104 128h-32v-16l32-32zm0 0" fill="#d6ad42"/><path d="m168 128h-32v-16l32-32zm0 0" fill="#d6ad42"/><path d="m328 128h-32v-16l32-32zm0 0" fill="#d6ad42"/><path d="m392 128h-32v-16l32-32zm0 0" fill="#d6ad42"/><path d="m456 128h-32v-16l32-32zm0 0" fill="#d6ad42"/><path d="m248 128h-32v-16l32-32zm0 0" fill="#d6ad42"/><g fill="#ccc"><path d="m299.808594 192h16.800781c2.234375-7.804688 3.375-15.882812 3.390625-24v-8h-16v8c-.015625 8.179688-1.433594 16.296875-4.191406 24zm0 0"/><path d="m380.246094 192c2.457031-10.492188 3.714844-21.226562 3.753906-32h-16c-.035156 10.800781-1.445312 21.554688-4.191406 32zm0 0"/><path d="m445.160156 192c1.875-10.5625 2.828125-21.269531 2.839844-32h-16c-.019531 10.742188-1.070312 21.457031-3.144531 32zm0 0"/><path d="m147.359375 192h16.800781c-2.75-7.703125-4.15625-15.820312-4.160156-24v-8h-16v8c.003906 8.117188 1.136719 16.195312 3.359375 24zm0 0"/><path d="m224 160h16v32h-16zm0 0"/><path d="m35.144531 192c-2.074219-10.542969-3.125-21.257812-3.144531-32h-16c.011719 10.730469.964844 21.4375 2.839844 32zm0 0"/><path d="m100.191406 192c-2.746094-10.445312-4.15625-21.199219-4.191406-32h-16c.039062 10.773438 1.296875 21.507812 3.753906 32zm0 0"/></g></svg>