<svg height="512pt" viewBox="0 -49 512.00103 512" width="512pt" xmlns="http://www.w3.org/2000/svg"><path d="m361.933594 52.964844 13.238281 179.378906-13.238281 182.554688-146.890625-36.722657c-1.390625-.3125-2.523438-1.3125-3.003907-2.648437l-6.886718-17.039063c-.484375-1.285156-1.546875-2.269531-2.867188-2.652343-1.320312-.378907-2.742187-.117188-3.839844.710937l-15.800781 11.917969c-1.0625.792968-2.429687 1.050781-3.707031.707031l-28.867188-7.242187-13.242187-176.902344 13.242187-185.027344 111.582032 27.894531c1.527344.398438 2.734375 1.574219 3.175781 3.089844l6.445313 22.597656c.464843 1.578125 1.769531 2.765625 3.382812 3.078125 1.617188.316406 3.269531-.292968 4.296875-1.574218l13.503906-16.863282c1.074219-1.34375 2.839844-1.929687 4.503907-1.5zm0 0" fill="#b19046"/><path d="m129.679688 259.707031c1.007812 3.902344 4.53125 6.628907 8.5625 6.621094.742187 0 1.484374-.089844 2.207031-.265625 3.265625-.882812 6.441406-1.675781 9.621093-2.46875v98.335938l-138.328124 48.820312c-2.695313.941406-5.679688.519531-8.007813-1.125-2.332031-1.648438-3.7226562-4.320312-3.734375-7.175781v-36.105469c-.03125-1.394531.632812-2.714844 1.765625-3.53125l18.980469-14.210938c1.238281-.90625 1.917968-2.394531 1.792968-3.925781s-1.039062-2.886719-2.410156-3.578125l-17.65625-8.828125c-1.5-.761719-2.4492185-2.289062-2.472656-3.972656v-269.0625c.015625-3.761719 2.378906-7.113281 5.914062-8.386719l89.335938-31.515625c1.609375-.519531 3.371094-.109375 4.589844 1.058594l9.09375 9.09375c1.144531 1.132813 2.816406 1.550781 4.359375 1.089844 1.542969-.460938 2.714843-1.722657 3.054687-3.296875l2.824219-14.035156c.328125-1.527344 1.433594-2.769532 2.914063-3.265626l27.984374-9.976562v245.496094c-4.589843.96875-9.179687 2.207031-14.035156 3.441406-2.273437.582031-4.222656 2.046875-5.414062 4.066406-1.191406 2.019532-1.53125 4.433594-.941406 6.703125zm0 0" fill="#e4c05c"/><path d="m512 12.457031v343.207031c-.011719 3.761719-2.375 7.109376-5.914062 8.386719l-28.246094 9.992188c-1.773438.625-3.746094.058593-4.917969-1.414063l-16.332031-20.40625c-1.097656-1.378906-2.914063-1.972656-4.613282-1.507812-1.699218.464844-2.960937 1.898437-3.207031 3.644531l-4.097656 28.8125c-.234375 1.625-1.351563 2.984375-2.902344 3.53125l-79.835937 28.195313v-361.933594l138.328125-48.816406c2.695312-.941407 5.679687-.523438 8.011719 1.128906 2.328124 1.648437 3.71875 4.324218 3.726562 7.179687zm0 0" fill="#e4c05c"/><path d="m284.335938 93.75c-10.925782-7.421875-23.445313-12.167969-36.542969-13.859375-4.851563-.585937-9.257813 2.871094-9.84375 7.722656-.585938 4.851563 2.871093 9.257813 7.722656 9.84375 10.332031 1.285157 20.203125 5.039063 28.777344 10.945313 1.457031 1 3.183593 1.523437 4.945312 1.5 2.941407.027344 5.695313-1.433594 7.328125-3.882813 1.3125-1.941406 1.800782-4.328125 1.351563-6.628906-.445313-2.300781-1.792969-4.332031-3.738281-5.640625zm-64-3.355469c-1.101563-2.078125-2.992188-3.632812-5.246094-4.3125-2.253906-.679687-4.6875-.429687-6.757813.695313-4.050781 2.144531-7.84375 4.753906-11.300781 7.765625-7.035156 6.25-12.277344 14.265625-15.183594 23.21875-1.585937 4.582031.816406 9.585937 5.386719 11.210937.933594.34375 1.917969.523438 2.914063.527344 3.761718-.003906 7.117187-2.371094 8.386718-5.914062 1.878906-6 5.320313-11.390626 9.972656-15.625 2.496094-2.167969 5.21875-4.0625 8.121094-5.648438 2.082032-1.078125 3.648438-2.945312 4.34375-5.183594.695313-2.238281.46875-4.664062-.636718-6.734375zm90.308593 32.664063c-1.273437-3.054688-4.144531-5.144532-7.445312-5.40625-3.296875-.265625-6.46875 1.335937-8.210938 4.148437-1.742187 2.816407-1.761719 6.367188-.058593 9.199219 3.277343 6.363281 5.003906 13.414062 5.03125 20.570312-.015626 2.691407-.25 5.378907-.703126 8.03125-.441406 2.308594.058594 4.695313 1.382813 6.632813s3.367187 3.269531 5.675781 3.695313c.527344.105468 1.058594.164062 1.589844.179687 4.25-.015625 7.886719-3.058594 8.652344-7.238281 2.550781-13.558594.464844-27.582032-5.914063-39.8125zm-108.578125 64c-3.132812-9.332032-5.382812-18.9375-6.710937-28.691406-.175781-1.148438-.265625-2.382813-.351563-3.617188-.253906-3.15625-2.167968-5.933594-5.027344-7.292969-2.855468-1.359375-6.222656-1.089843-8.828124.707031-2.605469 1.792969-4.054688 4.84375-3.800782 7.996094.175782 1.589844.351563 3.179688.527344 4.589844 1.484375 10.828125 3.964844 21.5 7.417969 31.867188 1.195312 3.621093 4.570312 6.074218 8.386719 6.09375.957031-.023438 1.90625-.171876 2.824218-.441407 4.601563-1.59375 7.078125-6.585937 5.5625-11.210937zm97.191406-.796875c-4.195312-2.484375-9.609374-1.101563-12.09375 3.089843-5.464843 9.414063-12.308593 17.953126-20.304687 25.335938-3.613281 3.300781-3.890625 8.894531-.617187 12.535156 1.699218 1.796875 4.058593 2.816406 6.53125 2.824219 2.175781.019531 4.28125-.765625 5.914062-2.207031 9.332031-8.574219 17.308594-18.515625 23.660156-29.484375 1.222656-2.003907 1.585938-4.421875 1.003906-6.699219-.582031-2.277344-2.058593-4.222656-4.09375-5.394531zm-48.640624 49.347656c-.621094-2.261719-2.113282-4.183594-4.148438-5.339844-2.039062-1.160156-4.449219-1.460937-6.710938-.839843-5.230468 1.445312-10.535156 2.625-15.890624 3.53125l-18.800782 2.914062c-4.34375 1.339844-6.957031 5.757812-6.046875 10.207031.914063 4.453125 5.058594 7.484375 9.578125 7.003907 2.207032-.261719 4.414063-.617188 6.621094-.882813l18.890625-3.175781c3.441406-.796875 6.972656-1.589844 10.414063-2.5625 4.671874-1.324219 7.394531-6.175782 6.09375-10.855469zm-79.714844 5.296875c-6.796875 1.324219-13.683594 2.824219-20.832032 4.589844v18.097656c8.386719-2.03125 16.417969-3.796875 24.1875-5.296875 3.105469-.601563 5.65625-2.8125 6.691407-5.800781 1.035156-2.992188.394531-6.304688-1.675781-8.695313-2.074219-2.390625-5.265626-3.496093-8.371094-2.894531zm106.816406 56.40625c-8.960938-6.34375-17.035156-13.855469-24.011719-22.332031-3.144531-3.730469-8.71875-4.203125-12.449219-1.058594-3.726562 3.144531-4.203124 8.714844-1.058593 12.445313 8 9.699218 17.261719 18.277343 27.542969 25.511718 1.484374 1 3.242187 1.523438 5.03125 1.5 3.835937-.046875 7.199218-2.5625 8.328124-6.230468 1.128907-3.664063-.238281-7.640626-3.382812-9.835938zm70.796875 19.332031c-.453125-2.296875-1.8125-4.316406-3.773437-5.597656-1.964844-1.277344-4.359376-1.710937-6.644532-1.199219-5.316406 1.09375-10.726562 1.683594-16.15625 1.765625h-.882812c-4.78125-.058593-9.542969-.621093-14.210938-1.675781-4.679687-.902344-9.234375 2.074219-10.285156 6.722656-1.046875 4.652344 1.785156 9.296875 6.402344 10.492188 5.933594 1.378906 12.003906 2.089844 18.09375 2.117187h1.148437c6.550781-.152343 13.078125-.863281 19.511719-2.117187 2.296875-.488282 4.304688-1.871094 5.578125-3.839844 1.277344-1.972656 1.714844-4.371094 1.21875-6.667969zm0 0" fill="#805333"/><g fill="#af8066"><path d="m150.070312 245.496094v18.097656c-3.179687.792969-6.355468 1.585938-9.621093 2.46875-.722657.175781-1.464844.265625-2.207031.265625-4.46875.03125-8.257813-3.28125-8.820313-7.714844-.5625-4.433593 2.277344-8.589843 6.613281-9.675781 4.855469-1.234375 9.445313-2.472656 14.035156-3.441406zm0 0"/><path d="m436.964844 152.964844c-2.414063 0-4.722656-.988282-6.390625-2.738282-3.742188-3.914062-7.804688-7.511718-12.144531-10.75-3.902344-2.925781-4.691407-8.457031-1.765626-12.359374 2.925782-3.898438 8.457032-4.691407 12.359376-1.765626 5.109374 3.828126 9.894531 8.074219 14.308593 12.695313 2.4375 2.554687 3.113281 6.320313 1.722657 9.566406-1.390626 3.246094-4.582032 5.351563-8.113282 5.351563zm0 0"/><path d="m371.476562 325.605469c-3.742187.003906-7.078124-2.34375-8.328124-5.867188-1.253907-3.523437-.152344-7.453125 2.746093-9.808593 9.003907-7.328126 17.726563-15.007813 25.929688-22.855469 3.519531-3.371094 9.109375-3.25 12.480469.273437 3.371093 3.523438 3.25 9.109375-.273438 12.480469-8.546875 8.175781-17.65625 16.171875-26.996094 23.792969-1.566406 1.285156-3.53125 1.988281-5.558594 1.984375zm0 0"/><path d="m422.339844 276.84375c-3.46875 0-6.621094-2.03125-8.050782-5.191406-1.429687-3.164063-.871093-6.867188 1.421876-9.472656 1.445312-1.640626 2.875-3.296876 4.289062-4.96875 6.101562-7.1875 12.09375-14.265626 17.285156-21.671876 2.796875-3.996093 8.300782-4.96875 12.296875-2.171874 3.996094 2.796874 4.964844 8.300781 2.171875 12.296874-5.667968 8.085938-11.9375 15.472657-17.992187 22.625-1.765625 2.089844-3.273438 3.832032-4.792969 5.550782-1.675781 1.910156-4.089844 3-6.628906 3.003906zm0 0"/><path d="m459.300781 217.679688c-.59375.003906-1.183593-.054688-1.765625-.175782-2.296875-.464844-4.3125-1.820312-5.609375-3.773437-1.292969-1.953125-1.761719-4.339844-1.292969-6.636719.628907-3.089844.949219-6.234375.953126-9.390625v-1.535156c-.230469-6.480469-1.5-12.878907-3.761719-18.953125-1.171875-2.980469-.640625-6.363282 1.394531-8.835938 2.03125-2.476562 5.246094-3.65625 8.394531-3.082031 3.152344.570313 5.746094 2.804687 6.78125 5.835937 2.925781 7.894532 4.5625 16.207032 4.84375 24.621094v1.949219c-.003906 4.335937-.441406 8.65625-1.296875 12.90625-.832031 4.109375-4.445312 7.066406-8.640625 7.070313zm0 0"/></g><path d="m70.621094 167.726562c-3.058594-.003906-5.898438-1.589843-7.503906-4.191406-1.609376-2.601562-1.753907-5.847656-.386719-8.585937l35.308593-70.617188c2.179688-4.363281 7.484376-6.136719 11.847657-3.957031s6.132812 7.484375 3.953125 11.847656l-35.308594 70.621094c-1.496094 2.996094-4.558594 4.886719-7.910156 4.882812zm0 0" fill="#e64c3c"/><path d="m114.757812 158.898438c-2.339843 0-4.585937-.933594-6.238281-2.585938l-52.964843-52.96875c-2.296876-2.214844-3.214844-5.496094-2.410157-8.582031.808594-3.089844 3.21875-5.5 6.304688-6.304688 3.085937-.808593 6.371093.109375 8.585937 2.40625l52.964844 52.964844c2.523438 2.523437 3.28125 6.320313 1.914062 9.621094-1.367187 3.296875-4.585937 5.445312-8.15625 5.449219zm0 0" fill="#e64c3c"/><path d="m51.730469 224.804688c-2.515625 0-4.910157-1.074219-6.585938-2.949219-3.953125-4.414063-7.8125-8.730469-11.660156-12.578125-3.347656-3.464844-3.296875-8.972656.105469-12.375 3.40625-3.40625 8.914062-3.453125 12.375-.109375 4.070312 4.070312 8.15625 8.617187 12.359375 13.304687 2.316406 2.59375 2.894531 6.308594 1.472656 9.484375-1.421875 3.179688-4.578125 5.222657-8.058594 5.222657zm0 0" fill="#af8066"/><path d="m107.742188 265.136719c-.410157 0-.820313-.027344-1.226563-.089844l-1.765625-.261719c-12.640625-2.414062-24.382812-8.230468-33.960938-16.828125-3.746093-3.121093-4.253906-8.691406-1.128906-12.4375 3.121094-3.746093 8.691406-4.25 12.4375-1.128906 7.171875 6.542969 15.980469 11.023437 25.492188 12.96875l1.398437.203125c4.605469.621094 7.941407 4.714844 7.625 9.351562-.320312 4.640626-4.183593 8.238282-8.835937 8.222657zm0 0" fill="#af8066"/></svg>