<svg height="511pt" viewBox="-99 0 511 511.99994" width="511pt" xmlns="http://www.w3.org/2000/svg"><path d="m251.679688 119.246094c33.628906 0 60.894531-27.265625 60.894531-60.890625-33.628907 0-60.894531 27.265625-60.894531 60.890625zm0 0" fill="#b9d171"/><path d="m244.070312 25.371094h15.222657v131.933594h-15.222657zm0 0" fill="#b9d171"/><path d="m233.632812 228.9375c1.824219-4.925781 2.820313-10.253906 2.820313-15.816406 0-5.640625-1.023437-11.042969-2.894531-16.03125l-45.386719-120.976563h-43.050781v182.675781h84.339844c8.40625 0 15.222656-6.8125 15.222656-15.222656 0-6.957031-4.675782-12.8125-11.050782-14.628906zm0 0" fill="#a45e43"/><path d="m173.828125 76.113281h-71.765625l-45.390625 120.976563c-1.871094 4.988281-2.894531 10.390625-2.894531 16.03125 0 5.5625 1 10.890625 2.820312 15.816406-6.375 1.816406-11.050781 7.671875-11.050781 14.628906 0 8.410156 6.816406 15.222656 15.222656 15.222656h90.199219l39.816406-71.039062zm0 0" fill="#c27749"/><path d="m99.449219 180.140625c-46.167969 0-83.726563-37.558594-83.726563-83.726563 0-4.203124-3.40625-7.609374-7.609375-7.609374-4.207031 0-7.613281 3.40625-7.613281 7.609374 0 54.5625 44.386719 98.949219 98.949219 98.949219h45.671875v-15.222656zm0 0" fill="#ffd9d4"/><path d="m266.902344 149.691406h-15.222656c-4.203126 0-7.609376 3.410156-7.609376 7.613282 0 4.203124 3.40625 7.609374 7.609376 7.609374h15.222656c4.199218 0 7.613281 3.414063 7.613281 7.613282 0 4.199218-3.414063 7.613281-7.613281 7.613281h-121.78125v15.222656h121.78125c12.589844 0 22.835937-10.246093 22.835937-22.835937s-10.242187-22.835938-22.835937-22.835938zm0 0" fill="#ffb4a9"/><path d="m107.0625 289.238281v199.511719l-25.238281 8.414062c-3.988281 1.332032-6.144531 5.640626-4.816407 9.628907 1.332032 3.988281 5.640626 6.144531 9.628907 4.8125l30.445312-10.148438c3.105469-1.035156 5.203125-3.941406 5.203125-7.21875v-205zm0 0" fill="#ffd9d4"/><path d="m183.179688 289.238281v199.511719l25.238281 8.414062c3.988281 1.332032 6.144531 5.640626 4.8125 9.628907-1.328125 3.988281-5.640625 6.144531-9.625 4.8125l-30.445313-10.148438c-3.109375-1.035156-5.203125-3.941406-5.203125-7.21875v-205zm0 0" fill="#ffb4a9"/><path d="m129.898438 289.238281 60.890624-30.449219v-45.667968l-60.890624-15.222656zm0 0" fill="#ffb4a9"/><path d="m160.34375 289.238281-60.890625-30.449219v-45.667968l60.890625-15.222656zm0 0" fill="#ffd9d4"/><path d="m190.789062 258.789062h-30.445312l15.222656 81.1875 30.445313 15.222657v-56.152344c0-15.445313-5.753907-29.519531-15.222657-40.257813zm0 0" fill="#9db55f"/><path d="m175.566406 299.046875v40.929687c-.011718 0-30.457031 15.222657-30.457031 15.222657l-30.445313-15.222657-30.425781 15.214844-.011719-56.144531c0-15.445313 5.757813-29.519531 15.226563-40.257813h60.890625c9.46875 10.738282 15.222656 24.8125 15.222656 40.257813zm0 0" fill="#b9d171"/><path d="m190.789062 187.75c0-11.210938-9.085937-20.296875-20.296874-20.296875h-30.445313l20.296875 45.667969h30.445312zm0 0" fill="#9db55f"/><path d="m160.34375 187.75v25.371094h-60.890625v-25.371094c0-11.214844 9.082031-20.296875 20.296875-20.296875h20.296875c11.214844 0 20.296875 9.082031 20.296875 20.296875zm0 0" fill="#b9d171"/><path d="m159.421875 75.65625-14.300781 61.351562c25.222656 0 45.667968-20.449218 45.667968-45.667968zm0 0" fill="#ffb4a9"/><path d="m160.34375 91.339844c0-5.511719-.324219-10.792969-.921875-15.683594l-41.707031-20.851562c-11.089844 8.332031-18.261719 21.59375-18.261719 36.535156 0 25.21875 20.445313 45.667968 45.667969 45.667968 8.40625 0 15.222656-20.449218 15.222656-45.667968zm0 0" fill="#ffd9d0"/><path d="m145.121094 45.667969 15.121094 40.425781c9.550781 3.390625 19.832031 5.246094 30.546874 5.246094 0-25.222656-20.445312-45.671875-45.667968-45.671875zm0 0" fill="#a45e43"/><path d="m145.121094 45.667969c-10.285156 0-19.769532 3.402343-27.40625 9.136719 10.691406 14.230468 25.441406 25.226562 42.523437 31.289062-.867187-22.75-7.300781-40.425781-15.117187-40.425781zm0 0" fill="#c27749"/><path d="m271.980469 0v25.371094c0 11.210937-9.089844 20.296875-20.300781 20.296875-11.207032 0-20.296876-9.085938-20.296876-20.296875v-25.371094c7.800782 0 14.910157 2.9375 20.296876 7.757812 5.386718-4.820312 12.5-7.757812 20.300781-7.757812zm0 0" fill="#a172ff"/></svg>