<svg height="512pt" viewBox="0 0 512 512" width="512pt" xmlns="http://www.w3.org/2000/svg"><path d="m151 241h-30v-90.117188c.027344-28.007812 10.957031-55.332031 30.761719-75.121093 3.546875-3.558594 7.382812-6.871094 11.425781-9.917969l18.019531 23.996094c-2.902343 2.167968-5.65625 4.539062-8.203125 7.101562-14.195312 14.195313-22.003906 34.019532-22.003906 54.058594zm0 0" fill="#663325"/><path d="m391 241h-30v-90c0-20.039062-7.808594-39.863281-21.972656-54.027344-2.578125-2.59375-5.332032-4.964844-8.230469-7.132812l18.015625-23.996094c4.042969 3.046875 7.882812 6.359375 11.457031 9.945312 19.800781 19.792969 30.730469 47.160157 30.730469 75.210938zm0 0" fill="#582b1f"/><path d="m181 211v150h-75c-41.726562 0-78.546875-24.65625-95.46875-60l50.46875-15-59.484375-15c-.714844-4.941406-1.515625-9.863281-1.515625-15v-45zm0 0" fill="#fdbf00"/><path d="m331 211v150h75c41.726562 0 78.546875-24.65625 95.46875-60l-50.46875-15 59.484375-15c.714844-4.941406 1.515625-9.863281 1.515625-15v-45zm0 0" fill="#ff9f00"/><path d="m91 271v30h-80.46875c-4.46875-9.34375-7.476562-19.390625-9.015625-30zm0 0" fill="#ff9f00"/><path d="m271 120h30v51.128906h-30zm0 0" fill="#582b1f"/><path d="m211 120h30v51.128906h-30zm0 0" fill="#663325"/><path d="m121 512h-30v-76c0-41.351562 33.648438-75 75-75v30c-24.8125 0-45 20.1875-45 45zm0 0" fill="#663325"/><path d="m421 512h-30v-76c0-24.8125-20.1875-45-45-45v-30c41.351562 0 75 33.648438 75 75zm0 0" fill="#582b1f"/><path d="m256 0c-24.902344 0-45 20.097656-45 45 0 24.898438 20.097656 45 45 45s45-20.101562 45-45c0-24.902344-20.097656-45-45-45zm0 0" fill="#fdbf00"/><path d="m359.5 241-79.800781 30-23.699219 23.699219-23.699219-23.699219-79.800781-30c7.5-50.699219 50.699219-90 103.5-90s96 39.300781 103.5 90zm0 0" fill="#73bcff"/><path d="m421 271v30h80.46875c4.46875-9.34375 7.476562-19.390625 9.015625-30zm0 0" fill="#ff7816"/><path d="m256 90v-90c24.902344 0 45 20.097656 45 45 0 24.898438-20.097656 45-45 45zm0 0" fill="#ff9f00"/><path d="m359.5 241-79.800781 30-23.699219 23.699219v-143.699219c52.800781 0 96 39.300781 103.5 90zm0 0" fill="#0095ff"/><path d="m361 256v120c0 57.898438-47.101562 105-105 105s-105-47.101562-105-105v-120c0-5.101562.902344-10.199219 1.5-15h79.800781l23.699219 23.699219 23.699219-23.699219h79.800781c.597656 4.800781 1.5 9.898438 1.5 15zm0 0" fill="#b9dd39"/><path d="m361 256v120c0 57.898438-47.101562 105-105 105v-216.300781l23.699219-23.699219h79.800781c.597656 4.800781 1.5 9.898438 1.5 15zm0 0" fill="#93bf00"/></svg>