<svg xmlns="http://www.w3.org/2000/svg" height="511pt" version="1.1" viewBox="-41 1 511 511.99998" width="511pt">
<g id="surface1">
<path d="M 279.695312 419.617188 L 214.539062 399.953125 L 153.8125 420.609375 L 130.582031 469.890625 L 153.8125 512 L 275.265625 512 L 298.496094 475.363281 Z M 279.695312 419.617188 " style=" stroke:none;fill-rule:nonzero;fill:rgb(65.098039%,42.745098%,76.078431%);fill-opacity:1;" />
<path d="M 277.4375 36.683594 C 264.613281 14.015625 240.582031 0 214.539062 0 C 201.515625 0 188.992188 3.503906 178.132812 9.84375 C 167.269531 16.175781 158.050781 25.34375 151.640625 36.683594 L 77.015625 168.574219 L 214.539062 179.371094 L 352.0625 168.574219 Z M 277.4375 36.683594 " style=" stroke:none;fill-rule:nonzero;fill:rgb(65.098039%,42.745098%,76.078431%);fill-opacity:1;" />
<path d="M 107.921875 168.574219 L 182.546875 36.683594 C 188.957031 25.34375 198.175781 16.175781 209.039062 9.84375 C 215.511719 6.066406 222.582031 3.300781 229.992188 1.679688 C 224.972656 0.582031 219.796875 0 214.539062 0 C 201.515625 0 188.992188 3.503906 178.132812 9.84375 C 167.269531 16.175781 158.050781 25.34375 151.640625 36.683594 L 77.015625 168.570312 L 214.539062 179.371094 L 229.992188 178.160156 Z M 107.921875 168.574219 " style=" stroke:none;fill-rule:nonzero;fill:rgb(56.470588%,37.254902%,65.882353%);fill-opacity:1;" />
<path d="M 257.347656 430.066406 C 257.347656 453.710938 238.179688 472.875 214.539062 472.875 C 190.894531 472.875 171.730469 453.710938 171.730469 430.066406 C 171.730469 406.425781 190.894531 387.257812 214.539062 387.257812 C 238.179688 387.257812 257.347656 406.425781 257.347656 430.066406 Z M 257.347656 430.066406 " style=" stroke:none;fill-rule:nonzero;fill:rgb(99.607843%,80.784314%,74.901961%);fill-opacity:1;" />
<path d="M 344.851562 512 L 275.265625 512 C 275.265625 431.152344 214.539062 399.953125 214.539062 399.953125 L 281.339844 399.953125 C 281.339844 399.953125 344.851562 427.796875 344.851562 512 Z M 344.851562 512 " style=" stroke:none;fill-rule:nonzero;fill:rgb(56.470588%,37.254902%,65.882353%);fill-opacity:1;" />
<path d="M 214.539062 399.953125 C 214.539062 399.953125 153.8125 431.152344 153.8125 512 L 84.222656 512 C 84.222656 427.796875 147.738281 399.953125 147.738281 399.953125 Z M 214.539062 399.953125 " style=" stroke:none;fill-rule:nonzero;fill:rgb(56.470588%,37.254902%,65.882353%);fill-opacity:1;" />
<path d="M 362.871094 234.945312 L 403.6875 259.832031 C 464.417969 394.230469 310.109375 387.257812 310.109375 387.257812 L 118.96875 387.257812 C 118.96875 387.257812 -35.339844 394.230469 25.386719 259.832031 L 66.203125 234.945312 Z M 362.871094 234.945312 " style=" stroke:none;fill-rule:nonzero;fill:rgb(40.392157%,78.039216%,53.72549%);fill-opacity:1;" />
<path d="M 56.292969 259.832031 L 97.109375 234.945312 L 66.203125 234.945312 L 25.386719 259.832031 C -35.339844 394.230469 118.96875 387.261719 118.96875 387.261719 L 141.714844 387.261719 C 110.652344 386.417969 4.125 375.289062 56.292969 259.832031 Z M 56.292969 259.832031 " style=" stroke:none;fill-rule:nonzero;fill:rgb(35.294118%,67.843137%,46.666667%);fill-opacity:1;" />
<path d="M 310.109375 387.261719 C 310.109375 387.261719 313.175781 387.398438 318.269531 387.261719 Z M 310.109375 387.261719 " style=" stroke:none;fill-rule:nonzero;fill:rgb(35.294118%,67.843137%,46.666667%);fill-opacity:1;" />
<path d="M 362.871094 281.734375 C 362.871094 363.65625 296.460938 430.066406 214.539062 430.066406 C 132.617188 430.066406 66.203125 363.65625 66.203125 281.734375 L 66.203125 234.945312 L 362.871094 234.945312 Z M 362.871094 281.734375 " style=" stroke:none;fill-rule:nonzero;fill:rgb(99.607843%,88.235294%,84.705882%);fill-opacity:1;" />
<path d="M 97.109375 281.734375 L 97.109375 234.945312 L 66.203125 234.945312 L 66.203125 281.734375 C 66.203125 363.65625 132.617188 430.070312 214.539062 430.070312 C 219.757812 430.070312 224.910156 429.796875 229.992188 429.269531 C 155.332031 421.539062 97.109375 358.4375 97.109375 281.734375 Z M 97.109375 281.734375 " style=" stroke:none;fill-rule:nonzero;fill:rgb(99.607843%,80.784314%,74.901961%);fill-opacity:1;" />
<path d="M 298.496094 312.011719 C 294.226562 312.011719 290.769531 308.550781 290.769531 304.285156 L 290.769531 285.894531 C 290.769531 281.625 294.226562 278.167969 298.496094 278.167969 C 302.761719 278.167969 306.21875 281.625 306.21875 285.894531 L 306.21875 304.285156 C 306.21875 308.550781 302.761719 312.011719 298.496094 312.011719 Z M 298.496094 312.011719 " style=" stroke:none;fill-rule:nonzero;fill:rgb(22.745098%,28.235294%,29.019608%);fill-opacity:1;" />
<path d="M 309.613281 333.9375 L 287.378906 333.9375 C 283.109375 333.9375 279.652344 330.476562 279.652344 326.210938 C 279.652344 321.941406 283.109375 318.484375 287.378906 318.484375 L 309.613281 318.484375 C 313.878906 318.484375 317.339844 321.941406 317.339844 326.210938 C 317.339844 330.476562 313.878906 333.9375 309.613281 333.9375 Z M 309.613281 333.9375 " style=" stroke:none;fill-rule:nonzero;fill:rgb(97.647059%,50.196078%,51.764706%);fill-opacity:1;" />
<path d="M 130.582031 312.011719 C 126.316406 312.011719 122.855469 308.550781 122.855469 304.285156 L 122.855469 285.894531 C 122.855469 281.625 126.316406 278.167969 130.582031 278.167969 C 134.851562 278.167969 138.308594 281.625 138.308594 285.894531 L 138.308594 304.285156 C 138.308594 308.550781 134.851562 312.011719 130.582031 312.011719 Z M 130.582031 312.011719 " style=" stroke:none;fill-rule:nonzero;fill:rgb(22.745098%,28.235294%,29.019608%);fill-opacity:1;" />
<path d="M 141.699219 333.9375 L 119.464844 333.9375 C 115.199219 333.9375 111.738281 330.476562 111.738281 326.210938 C 111.738281 321.941406 115.199219 318.484375 119.464844 318.484375 L 141.699219 318.484375 C 145.964844 318.484375 149.425781 321.941406 149.425781 326.210938 C 149.425781 330.476562 145.964844 333.9375 141.699219 333.9375 Z M 141.699219 333.9375 " style=" stroke:none;fill-rule:nonzero;fill:rgb(97.647059%,50.196078%,51.764706%);fill-opacity:1;" />
<path d="M 214.539062 333.015625 C 206.457031 333.015625 198.863281 329.628906 193.707031 323.730469 C 190.898438 320.515625 191.226562 315.636719 194.4375 312.828125 C 197.652344 310.019531 202.53125 310.347656 205.339844 313.558594 C 207.5625 316.101562 210.917969 317.5625 214.539062 317.5625 C 218.160156 317.5625 221.515625 316.101562 223.738281 313.558594 C 226.546875 310.347656 231.425781 310.019531 234.640625 312.828125 C 237.855469 315.636719 238.179688 320.515625 235.371094 323.730469 C 230.214844 329.628906 222.621094 333.015625 214.539062 333.015625 Z M 214.539062 333.015625 " style=" stroke:none;fill-rule:nonzero;fill:rgb(22.745098%,28.235294%,29.019608%);fill-opacity:1;" />
<path d="M 352.0625 168.574219 L 77.015625 168.574219 L 53.550781 210.054688 L 214.539062 234.945312 L 375.523438 210.054688 Z M 352.0625 168.574219 " style=" stroke:none;fill-rule:nonzero;fill:rgb(28.235294%,34.509804%,46.666667%);fill-opacity:1;" />
<path d="M 84.457031 210.054688 L 107.921875 168.574219 L 77.015625 168.574219 L 53.550781 210.054688 L 214.539062 234.945312 L 229.992188 232.554688 Z M 84.457031 210.054688 " style=" stroke:none;fill-rule:nonzero;fill:rgb(20%,25.098039%,37.647059%);fill-opacity:1;" />
<path d="M 234.1875 148.6875 L 194.890625 148.6875 C 181 148.6875 169.738281 159.949219 169.738281 173.839844 L 169.738281 210.054688 L 259.335938 210.054688 L 259.335938 173.839844 C 259.335938 159.949219 248.078125 148.6875 234.1875 148.6875 Z M 234.1875 148.6875 " style=" stroke:none;fill-rule:nonzero;fill:rgb(99.607843%,80.392157%,21.960784%);fill-opacity:1;" />
<path d="M 403.6875 210.054688 L 25.386719 210.054688 C 11.640625 210.054688 0.5 221.199219 0.5 234.945312 C 0.5 248.691406 11.640625 259.832031 25.386719 259.832031 L 403.6875 259.832031 C 417.433594 259.832031 428.578125 248.691406 428.578125 234.945312 C 428.578125 221.199219 417.433594 210.054688 403.6875 210.054688 Z M 403.6875 210.054688 " style=" stroke:none;fill-rule:nonzero;fill:rgb(65.098039%,42.745098%,76.078431%);fill-opacity:1;" />
<path d="M 31.40625 234.945312 C 31.40625 221.199219 42.546875 210.058594 56.292969 210.058594 L 25.386719 210.058594 C 11.640625 210.058594 0.5 221.199219 0.5 234.945312 C 0.5 248.691406 11.640625 259.832031 25.386719 259.832031 L 56.292969 259.832031 C 42.550781 259.832031 31.40625 248.691406 31.40625 234.945312 Z M 31.40625 234.945312 " style=" stroke:none;fill-rule:nonzero;fill:rgb(56.470588%,37.254902%,65.882353%);fill-opacity:1;" />
<path d="M 195.496094 174.441406 L 233.582031 174.441406 L 233.582031 210.054688 L 195.496094 210.054688 Z M 195.496094 174.441406 " style=" stroke:none;fill-rule:nonzero;fill:rgb(28.235294%,34.509804%,46.666667%);fill-opacity:1;" />
</g>
</svg>